<svg width="40" height="40" viewBox="0 0 40 40" fill="none" xmlns="http://www.w3.org/2000/svg">
<path d="M23.9983 19.3036C23.9983 19.2366 23.9648 19.1613 23.9146 19.111L23.4961 18.6925C23.4459 18.6423 23.3705 18.6088 23.3036 18.6088C23.2366 18.6088 23.1613 18.6423 23.111 18.6925L19.8214 21.9821L16.5318 18.6925C16.4816 18.6423 16.4063 18.6088 16.3393 18.6088C16.264 18.6088 16.197 18.6423 16.1468 18.6925L15.7282 19.111C15.678 19.1613 15.6445 19.2366 15.6445 19.3036C15.6445 19.3705 15.678 19.4459 15.7282 19.4961L19.6289 23.3968C19.6791 23.447 19.7545 23.4805 19.8214 23.4805C19.8884 23.4805 19.9637 23.447 20.014 23.3968L23.9146 19.4961C23.9648 19.4459 23.9983 19.3705 23.9983 19.3036Z" fill="white"/>
<circle opacity="0.7" cx="20" cy="20" r="19.5" stroke="white"/>
</svg>
